<svg width="40" height="77" viewBox="0 0 40 77" fill="none" xmlns="http://www.w3.org/2000/svg">
<path d="M20 4.49997C21 3.66664 24 2 28 2C31.5 2 37.5 5.99997 37.5 17.5C37.5 24.6503 33.8643 31.3462 30.4924 31.955C33.8138 31.6942 39 32.2983 39 46C39 60.4 24.5 58.5 20 55.5C17 59 1 61.6 1 46C1 30.4 8.5 32 12 32L11.9382 31.9824C8.4357 30.982 3 29.4296 3 17.5C3 -2.5 17 0.999972 20 4.49997Z" fill="#CFDECB" stroke="#212121" stroke-width="2"/>
<path d="M18 76V57.7215L23 57.7215V76H18Z" fill="#D9D9D9"/>
<path d="M18 76V57.7215L23 57.7215V76H18Z" fill="#9C7E7E"/>
<path d="M18 76V57.7215L23 57.7215V76H18Z" stroke="#212121" stroke-width="2"/>
</svg>
