<svg width="82" height="77" viewBox="0 0 82 77" fill="none" xmlns="http://www.w3.org/2000/svg">
<mask id="path-1-inside-1_102_1669" fill="white">
<path d="M35.8354 26C51.0697 26 63.4194 39.0935 63.4194 55.2451C63.4194 63.8838 59.8855 71.6464 54.2681 77H17.4028C11.7854 71.6464 8.25148 63.8838 8.25146 55.2451C8.25146 39.0935 20.6012 26.0001 35.8354 26Z"/>
</mask>
<path d="M35.8354 26C51.0697 26 63.4194 39.0935 63.4194 55.2451C63.4194 63.8838 59.8855 71.6464 54.2681 77H17.4028C11.7854 71.6464 8.25148 63.8838 8.25146 55.2451C8.25146 39.0935 20.6012 26.0001 35.8354 26Z" fill="#D8DFE9"/>
<path d="M35.8354 26V24H35.8354L35.8354 26ZM63.4194 55.2451L65.4194 55.2451V55.2451H63.4194ZM54.2681 77V79H55.0685L55.6479 78.4478L54.2681 77ZM17.4028 77L16.023 78.4478L16.6024 79H17.4028V77ZM8.25146 55.2451H6.25146V55.2451L8.25146 55.2451ZM35.8354 26V28C49.8566 28 61.4194 40.0863 61.4194 55.2451H63.4194H65.4194C65.4194 38.1007 52.2829 24 35.8354 24V26ZM63.4194 55.2451L61.4194 55.2451C61.4194 63.3333 58.1121 70.5737 52.8883 75.5522L54.2681 77L55.6479 78.4478C61.659 72.7191 65.4194 64.4343 65.4194 55.2451L63.4194 55.2451ZM54.2681 77V75H17.4028V77V79H54.2681V77ZM17.4028 77L18.7826 75.5522C13.5588 70.5737 10.2515 63.3332 10.2515 55.2451L8.25146 55.2451L6.25146 55.2451C6.25148 64.4343 10.012 72.7191 16.023 78.4478L17.4028 77ZM8.25146 55.2451H10.2515C10.2515 40.0863 21.8144 28.0001 35.8355 28L35.8354 26L35.8354 24C19.3881 24.0001 6.25146 38.1008 6.25146 55.2451H8.25146Z" fill="black" mask="url(#path-1-inside-1_102_1669)"/>
<path d="M6 61.331H25.0982L36.2515 50.5L46.9774 61.331H64.5625" stroke="#231F20" stroke-width="2" stroke-miterlimit="10"/>
<path d="M22.9104 52.3859C20.927 52.3859 19.332 50.7725 19.332 48.812C19.332 46.8514 20.9474 45.238 22.9104 45.238C24.8734 45.238 26.4888 46.8514 26.4888 48.812C26.4888 50.7725 24.8734 52.3859 22.9104 52.3859Z" fill="#231F20"/>
<path d="M48.613 51.9571C46.6296 51.9571 45.0347 50.3437 45.0347 48.3831C45.0347 46.4226 46.65 44.8092 48.613 44.8092C50.576 44.8092 52.1914 46.4226 52.1914 48.3831C52.1914 50.3437 50.576 51.9571 48.613 51.9571Z" fill="#231F20"/>
<path d="M1.00726 22C0.607258 19.6 16.8406 21 25.0073 22L36.0073 2L48 9L62.0073 10.5V32C69.174 36 82.8073 44.1 80.0073 44.5C76.5073 45 1.50726 25 1.00726 22Z" fill="#CFDECB" stroke="#212121" stroke-width="2"/>
<path d="M37.5 69C38.5 68.5 41.5 66.9 43.5 66.5C45.5 66.1 49.5 66.5 50.5 67" stroke="#212121" stroke-width="2"/>
</svg>
