<svg width="66" height="79" viewBox="0 0 66 79" fill="none" xmlns="http://www.w3.org/2000/svg">
<mask id="path-1-inside-1_102_1670" fill="white">
<path d="M36.8354 28C52.0697 28 64.4194 41.0935 64.4194 57.2451C64.4194 65.8838 60.8855 73.6464 55.2681 79H18.4028C12.7854 73.6464 9.25148 65.8838 9.25146 57.2451C9.25146 41.0935 21.6012 28.0001 36.8354 28Z"/>
</mask>
<path d="M36.8354 28C52.0697 28 64.4194 41.0935 64.4194 57.2451C64.4194 65.8838 60.8855 73.6464 55.2681 79H18.4028C12.7854 73.6464 9.25148 65.8838 9.25146 57.2451C9.25146 41.0935 21.6012 28.0001 36.8354 28Z" fill="#D8DFE9"/>
<path d="M36.8354 28V26H36.8354L36.8354 28ZM64.4194 57.2451L66.4194 57.2451V57.2451H64.4194ZM55.2681 79V81H56.0685L56.6479 80.4478L55.2681 79ZM18.4028 79L17.023 80.4478L17.6024 81H18.4028V79ZM9.25146 57.2451H7.25146V57.2451L9.25146 57.2451ZM36.8354 28V30C50.8566 30 62.4194 42.0863 62.4194 57.2451H64.4194H66.4194C66.4194 40.1007 53.2829 26 36.8354 26V28ZM64.4194 57.2451L62.4194 57.2451C62.4194 65.3333 59.1121 72.5737 53.8883 77.5522L55.2681 79L56.6479 80.4478C62.659 74.7191 66.4194 66.4343 66.4194 57.2451L64.4194 57.2451ZM55.2681 79V77H18.4028V79V81H55.2681V79ZM18.4028 79L19.7826 77.5522C14.5588 72.5737 11.2515 65.3332 11.2515 57.2451L9.25146 57.2451L7.25146 57.2451C7.25148 66.4343 11.012 74.7191 17.023 80.4478L18.4028 79ZM9.25146 57.2451H11.2515C11.2515 42.0863 22.8144 30.0001 36.8355 30L36.8354 28L36.8354 26C20.3881 26.0001 7.25146 40.1008 7.25146 57.2451H9.25146Z" fill="black" mask="url(#path-1-inside-1_102_1670)"/>
<path d="M42.5 68H50" stroke="#212121" stroke-width="2"/>
<path d="M7 63.331H26.0982L37.2515 52.5L47.9774 63.331H65.5625" stroke="#231F20" stroke-width="2" stroke-miterlimit="10"/>
<path d="M37.5 29.5C32.3 29.1 22.6667 32.6667 18.5 34.5L26 17.5H4C13.8333 11.1667 35.3 -0.79999 42.5 2.00001C49.7 4.80001 54.5 26.1667 56 36.5C52 34.3334 42.7 29.9 37.5 29.5Z" fill="#BAB4D2" stroke="#212121" stroke-width="2"/>
<path d="M20.5 51H27" stroke="#212121" stroke-width="2"/>
<path d="M48 51H54.5" stroke="#212121" stroke-width="2"/>
</svg>
