<svg width="64" height="69" viewBox="0 0 64 69" fill="none" xmlns="http://www.w3.org/2000/svg">
<mask id="path-1-inside-1_102_1672" fill="white">
<path d="M31.8354 18C47.0697 18 59.4194 31.0935 59.4194 47.2451C59.4194 55.8838 55.8855 63.6464 50.2681 69H13.4028C7.78541 63.6464 4.25148 55.8838 4.25146 47.2451C4.25146 31.0935 16.6012 18.0001 31.8354 18Z"/>
</mask>
<path d="M31.8354 18C47.0697 18 59.4194 31.0935 59.4194 47.2451C59.4194 55.8838 55.8855 63.6464 50.2681 69H13.4028C7.78541 63.6464 4.25148 55.8838 4.25146 47.2451C4.25146 31.0935 16.6012 18.0001 31.8354 18Z" fill="#D8DFE9"/>
<path d="M31.8354 18V16H31.8354L31.8354 18ZM59.4194 47.2451L61.4194 47.2451V47.2451H59.4194ZM50.2681 69V71H51.0685L51.6479 70.4478L50.2681 69ZM13.4028 69L12.023 70.4478L12.6024 71H13.4028V69ZM4.25146 47.2451H2.25146V47.2451L4.25146 47.2451ZM31.8354 18V20C45.8566 20 57.4194 32.0863 57.4194 47.2451H59.4194H61.4194C61.4194 30.1007 48.2829 16 31.8354 16V18ZM59.4194 47.2451L57.4194 47.2451C57.4194 55.3333 54.1121 62.5737 48.8883 67.5522L50.2681 69L51.6479 70.4478C57.659 64.7191 61.4194 56.4343 61.4194 47.2451L59.4194 47.2451ZM50.2681 69V67H13.4028V69V71H50.2681V69ZM13.4028 69L14.7826 67.5522C9.55881 62.5737 6.25148 55.3332 6.25146 47.2451L4.25146 47.2451L2.25146 47.2451C2.25148 56.4343 6.012 64.7191 12.023 70.4478L13.4028 69ZM4.25146 47.2451H6.25146C6.25146 32.0863 17.8144 20.0001 31.8355 20L31.8354 18L31.8354 16C15.3881 16.0001 2.25146 30.1008 2.25146 47.2451H4.25146Z" fill="black" mask="url(#path-1-inside-1_102_1672)"/>
<path d="M2 53.331H21.0982L32.2515 42.5L42.9774 53.331H60.5625" stroke="#231F20" stroke-width="2" stroke-miterlimit="10"/>
<path d="M26 58C27.5 56.5 30.5 54 32.5 54C34.5 54 37 57 38 58" stroke="#212121" stroke-width="2"/>
<path d="M27 35H1C0.999749 39.5 1.6 48.5 14 48.5C26.4 48.5 27 39.5 27 35Z" fill="#231F20" stroke="#212121" stroke-width="2"/>
<path d="M63 34H37C36.9997 38.5 37.6 47.5 50 47.5C62.4 47.5 63 38.5 63 34Z" fill="#231F20" stroke="#212121" stroke-width="2"/>
<path d="M30.5682 1C12.3408 1 10.0954 17 11.2512 25C14.8834 23.6667 24.03 21 31.5587 21C39.0873 21 47.5736 22.8667 50.8757 23.8C51.7012 16.2 48.7955 1 30.5682 1Z" fill="#496B9C" stroke="#212121" stroke-width="2"/>
<path d="M43.1772 29.9546C32.9241 32.3552 12.4177 30.4524 9 25.9728C11.2785 22.9864 23.8101 20 32.9241 20C39.7595 20 50.5823 21.4922 54 24.4796C53.4304 25.9717 53.4304 27.554 43.1772 29.9546Z" fill="#496B9C" stroke="#212121" stroke-width="2"/>
</svg>
