<svg width="74" height="73" viewBox="0 0 74 73" fill="none" xmlns="http://www.w3.org/2000/svg">
<mask id="mask0_44_687" style="mask-type:luminance" maskUnits="userSpaceOnUse" x="8" y="7" width="58" height="59">
<path d="M49.731 7.61702H24.4895C15.7219 7.61702 8.61426 14.8211 8.61426 23.7079V49.2921C8.61426 58.1789 15.7219 65.383 24.4895 65.383H49.731C58.4987 65.383 65.6063 58.1789 65.6063 49.2921V23.7079C65.6063 14.8211 58.4987 7.61702 49.731 7.61702Z" fill="white"/>
</mask>
<g mask="url(#mask0_44_687)">
<path d="M49.8494 7.61702H24.3712C15.6689 7.61702 8.61426 14.7674 8.61426 23.5879V49.4121C8.61426 58.2326 15.6689 65.383 24.3712 65.383H49.8494C58.5517 65.383 65.6063 58.2326 65.6063 49.4121V23.5879C65.6063 14.7674 58.5517 7.61702 49.8494 7.61702Z" fill="#EEEFA4"/>
<path d="M8.61426 48.5039L32.7146 35.7889C35.5126 34.3151 38.7079 34.3151 41.506 35.7889L65.6063 48.5039V57.6203H8.61426V48.5039Z" fill="#231F20"/>
<path d="M37.1105 60.9276C43.4085 60.9276 48.514 55.4344 48.514 48.6581C48.514 41.8819 43.4085 36.3886 37.1105 36.3886C30.8125 36.3886 25.707 41.8819 25.707 48.6581C25.707 55.4344 30.8125 60.9276 37.1105 60.9276Z" fill="#D8DFE9"/>
<path d="M19.46 57.1234L27.6765 65.383" stroke="#231F20" stroke-miterlimit="10"/>
<path d="M24.7012 51.3228H32.5965L37.2074 46.7787L41.6415 51.3228H48.9114" stroke="#231F20" stroke-miterlimit="10"/>
<path d="M31.6922 47.5699C30.8722 47.5699 30.2129 46.8931 30.2129 46.0705C30.2129 45.248 30.8807 44.5711 31.6922 44.5711C32.5037 44.5711 33.1715 45.248 33.1715 46.0705C33.1715 46.8931 32.5037 47.5699 31.6922 47.5699Z" fill="#231F20"/>
<path d="M7.68853 39.5673C7.68853 39.5673 11.3911 40.7154 13.3269 38.1707C15.2627 35.626 11.6447 31.1706 12.397 29.6455C13.1493 28.1204 20.6812 28.1204 20.6812 28.1204L21.7379 17.1789L10.8078 10.6158C10.8078 10.6158 9.37919 11.0613 8.09429 14.1544C6.51352 17.9758 7.68853 39.5759 7.68853 39.5759V39.5673Z" fill="#D8DFE9" stroke="#0B0B0B" stroke-miterlimit="10"/>
<path d="M44.7305 4.02693L37.2578 15.9794L39.7431 20.1435C39.7431 20.1435 46.2098 19.1324 46.8354 19.5094C47.4609 19.8864 47.7061 23.4165 48.8219 24.933C49.9377 26.4496 55.1703 23.4165 55.1703 23.4165L63.632 25.7556L62.5162 34.2637C62.5162 34.2637 57.2667 33.2526 56.4721 34.2637C55.6775 35.2747 55.8043 37.5624 55.8043 37.5624L57.0469 43.8599L66.8781 49.0436V17.7701C66.8781 17.7701 66.7259 14.0944 63.8603 11.2327C60.9946 8.37095 55.6606 5.49207 55.6606 5.49207L44.7474 4.01836L44.7305 4.02693Z" fill="#D8DFE9" stroke="#080908" stroke-miterlimit="10"/>
<path d="M26.3323 28.2147C26.3323 28.2147 26.2309 31.7362 30.0856 31.7362C33.9403 31.7362 35.5971 29.9711 35.5971 29.9711L30.0856 26.6639L29.012 23.1167L25.749 23.9306L26.3323 28.2147Z" fill="#D8DFE9" stroke="#0B0B0B" stroke-miterlimit="10"/>
<path d="M7.81934 57.6032H66.1977C66.1977 57.6032 65.9356 59.8652 63.1207 62.864C60.3057 65.8628 56.5947 65.7857 56.5947 65.7857H19.823C19.823 65.7857 15.6302 66.2055 11.7417 63.5837C7.85315 60.9619 7.82779 57.6032 7.82779 57.6032H7.81934Z" fill="white"/>
<path d="M26.8145 57.3633H47.4066" stroke="#231F20" stroke-width="0.5" stroke-miterlimit="10"/>
<path d="M42.3172 47.39C41.4972 47.39 40.8379 46.7132 40.8379 45.8906C40.8379 45.0681 41.5057 44.3912 42.3172 44.3912C43.1287 44.3912 43.7965 45.0681 43.7965 45.8906C43.7965 46.7132 43.1287 47.39 42.3172 47.39Z" fill="#231F20"/>
</g>
<path d="M50.0269 7.61702H24.1936C15.5894 7.61702 8.61426 14.6869 8.61426 23.408V49.592C8.61426 58.3131 15.5894 65.383 24.1936 65.383H50.0269C58.6311 65.383 65.6063 58.3131 65.6063 49.592V23.408C65.6063 14.6869 58.6311 7.61702 50.0269 7.61702Z" stroke="#231F20" stroke-miterlimit="10"/>
<path d="M19.0617 48.6581H3.33012C3.33012 48.6581 1.75781 48.6581 1.75781 50.1232C1.75781 51.914 4.36988 57.3804 8.11468 57.3804H19.0617C21.0989 57.3804 22.7558 55.5468 22.7558 53.2849V52.7536C22.7558 50.4917 21.0989 48.6581 19.0617 48.6581Z" fill="#D8DFE9" stroke="#231F20" stroke-miterlimit="10"/>
<path d="M54.9294 48.6581H70.661C70.661 48.6581 72.2333 48.6581 72.2333 50.1232C72.2333 51.914 69.6212 57.3804 65.8764 57.3804H54.9294C52.8922 57.3804 51.2354 55.5468 51.2354 53.2849V52.7536C51.2354 50.4917 52.8922 48.6581 54.9294 48.6581Z" fill="#D8DFE9" stroke="#231F20" stroke-miterlimit="10"/>
<path d="M10.9551 57.477H63.0445" stroke="black"/>
</svg>
