<svg width="230" height="186" viewBox="0 0 230 186" fill="none" xmlns="http://www.w3.org/2000/svg">
<mask id="mask0_68_1154" style="mask-type:luminance" maskUnits="userSpaceOnUse" x="19" y="14" width="159" height="148">
<path d="M136.23 14.6651H60.5098C37.6795 14.6651 19.1719 33.1794 19.1719 56.018V120.051C19.1719 142.89 37.6795 161.404 60.5098 161.404H136.23C159.06 161.404 177.568 142.89 177.568 120.051V56.018C177.568 33.1794 159.06 14.6651 136.23 14.6651Z" fill="white"/>
</mask>
<g mask="url(#mask0_68_1154)">
<path d="M136.538 14.6651H60.2016C37.5415 14.6651 19.1719 33.0414 19.1719 55.7097V120.359C19.1719 143.028 37.5415 161.404 60.2016 161.404H136.538C159.198 161.404 177.568 143.028 177.568 120.359V55.7097C177.568 33.0414 159.198 14.6651 136.538 14.6651Z" fill="#EEEFA4"/>
<path d="M16.1783 95.8295C16.1783 95.8295 26.4798 98.7361 31.8506 92.2843C37.2215 85.8326 27.1621 74.5145 29.2532 70.617C31.3443 66.7195 52.2774 66.7415 52.2774 66.7415L55.205 38.9307L24.8289 22.2398C24.8289 22.2398 20.8448 23.3628 17.3009 31.2458C12.8986 40.9565 16.1783 95.8295 16.1783 95.8295Z" fill="#D8DFE9" stroke="#0B0B0B" stroke-width="2" stroke-miterlimit="10"/>
<path d="M119.149 5.52692L98.3701 35.892L105.282 46.4614C105.282 46.4614 123.265 43.9072 124.982 44.854C126.721 45.8229 127.404 54.7849 130.507 58.6163C133.611 62.4697 148.139 54.7629 148.139 54.7629L171.647 60.7082L168.543 82.3094C168.543 82.3094 153.95 79.7552 151.748 82.3094C149.547 84.8637 149.877 90.6989 149.877 90.6989L153.333 106.707L180.65 119.897V40.4501C180.65 40.4501 180.21 31.1138 172.263 23.8473C164.317 16.5808 149.459 9.27026 149.459 9.27026L119.127 5.52692H119.149Z" fill="#D8DFE9" stroke="#080908" stroke-width="2" stroke-miterlimit="10"/>
<path d="M68.4115 67.0058C68.4115 67.0058 68.1254 75.9678 78.8451 75.9678C89.5648 75.9678 94.1652 71.4978 94.1652 71.4978L78.8451 63.1083L75.8735 54.0803L66.8047 56.1501L68.4115 67.0278V67.0058Z" fill="#D8DFE9" stroke="#0B0B0B" stroke-width="2" stroke-miterlimit="10"/>
<path d="M16.9703 141.652H179.24C179.24 141.652 178.492 147.4 170.7 155.018C162.886 162.637 152.562 162.439 152.562 162.439H50.3179C50.3179 162.439 38.6738 163.518 27.844 156.846C17.0363 150.174 16.9482 141.652 16.9482 141.652H16.9703Z" fill="white"/>
<path d="M24.5645 141.058H174.002" stroke="#231F20" stroke-width="2" stroke-miterlimit="10"/>
</g>
<path d="M137 14.6651H59.7394C37.3346 14.6651 19.1719 32.8344 19.1719 55.2473V120.822C19.1719 143.235 37.3346 161.404 59.7394 161.404H137C159.405 161.404 177.568 143.235 177.568 120.822V55.2473C177.568 32.8344 159.405 14.6651 137 14.6651Z" stroke="#231F20" stroke-width="2" stroke-miterlimit="10"/>
<path d="M177.569 103.713C177.569 103.713 174.487 103.536 171.493 105.848C168.5 108.161 142.416 150.196 142.416 150.196H177.569V103.713Z" fill="#231F20"/>
<path d="M183.335 160.787C199.735 160.787 213.029 146.67 213.029 129.255C213.029 111.841 199.735 97.7232 183.335 97.7232C166.936 97.7232 153.642 111.841 153.642 129.255C153.642 146.67 166.936 160.787 183.335 160.787Z" fill="#D8DFE9" stroke="#080908" stroke-width="2" stroke-miterlimit="10"/>
<path d="M196.741 129.255C194.606 129.255 192.889 127.516 192.889 125.402C192.889 123.288 194.628 121.548 196.741 121.548C198.854 121.548 200.593 123.288 200.593 125.402C200.593 127.516 198.854 129.255 196.741 129.255Z" fill="#231F20"/>
<path d="M180.738 139.054H201.297L213.051 129.057" stroke="#231F20" stroke-width="2" stroke-miterlimit="10"/>
<path d="M162.05 150.196H121.086C121.086 150.196 116.992 150.196 116.992 153.961C116.992 158.564 123.794 172.612 133.545 172.612H162.05C167.355 172.612 171.669 167.9 171.669 162.087V160.721C171.669 154.908 167.355 150.196 162.05 150.196Z" fill="#D8DFE9" stroke="#231F20" stroke-width="2" stroke-miterlimit="10"/>
<path d="M60.9725 150.196H19.9868C19.9868 150.196 15.8926 150.196 15.8926 153.961C15.8926 158.564 22.6942 172.612 32.4454 172.612H60.9505C66.2553 172.612 70.5696 167.9 70.5696 162.087V160.721C70.5696 154.908 66.2553 150.196 60.9505 150.196H60.9725Z" fill="#D8DFE9" stroke="#231F20" stroke-width="2" stroke-miterlimit="10"/>
</svg>
