<svg width="230" height="186" viewBox="0 0 230 186" fill="none" xmlns="http://www.w3.org/2000/svg">
<mask id="mask0_186_35" style="mask-type:luminance" maskUnits="userSpaceOnUse" x="19" y="14" width="159" height="148">
<path d="M136.23 14.6651H60.5101C37.6798 14.6651 19.1722 33.1794 19.1722 56.018V120.051C19.1722 142.89 37.6798 161.404 60.5101 161.404H136.23C159.061 161.404 177.568 142.89 177.568 120.051V56.018C177.568 33.1794 159.061 14.6651 136.23 14.6651Z" fill="white"/>
</mask>
<g mask="url(#mask0_186_35)">
<path d="M136.538 14.6651H60.2019C37.5418 14.6651 19.1722 33.0414 19.1722 55.7097V120.359C19.1722 143.028 37.5418 161.404 60.2019 161.404H136.538C159.199 161.404 177.568 143.028 177.568 120.359V55.7097C177.568 33.0414 159.199 14.6651 136.538 14.6651Z" fill="#EEEFA4"/>
<path d="M16.1786 95.8295C16.1786 95.8295 26.48 98.7361 31.8509 92.2844C37.2217 85.8326 27.1624 74.5145 29.2535 70.617C31.3446 66.7195 52.2777 66.7416 52.2777 66.7416L55.2053 38.9307L24.8292 22.2398C24.8292 22.2398 20.8451 23.3629 17.3012 31.2459C12.8988 40.9566 16.1786 95.8295 16.1786 95.8295Z" fill="#D8DFE9" stroke="#0B0B0B" stroke-miterlimit="10"/>
<path d="M119.149 5.52693L98.3702 35.892L105.282 46.4615C105.282 46.4615 123.265 43.9072 124.982 44.854C126.721 45.8229 127.404 54.7849 130.507 58.6163C133.611 62.4698 148.139 54.7629 148.139 54.7629L171.647 60.7082L168.543 82.3095C168.543 82.3095 153.95 79.7552 151.749 82.3095C149.547 84.8637 149.877 90.6989 149.877 90.6989L153.333 106.707L180.65 119.897V40.4501C180.65 40.4501 180.21 31.1138 172.263 23.8473C164.317 16.5808 149.459 9.27027 149.459 9.27027L119.127 5.52693H119.149Z" fill="#D8DFE9" stroke="#080908" stroke-miterlimit="10"/>
<path d="M68.4123 67.0058C68.4123 67.0058 68.1261 75.9678 78.8458 75.9678C89.5655 75.9678 94.1659 71.4978 94.1659 71.4978L78.8458 63.1083L75.8742 54.0803L66.8054 56.1501L68.4123 67.0278V67.0058Z" fill="#D8DFE9" stroke="#0B0B0B" stroke-miterlimit="10"/>
<path d="M16.971 141.652H179.241C179.241 141.652 178.493 147.4 170.701 155.018C162.886 162.637 152.563 162.439 152.563 162.439H50.3187C50.3187 162.439 38.6745 163.518 27.8448 156.846C17.037 150.174 16.949 141.652 16.949 141.652H16.971Z" fill="white"/>
<path d="M24.565 141.058H174.002" stroke="#231F20" stroke-miterlimit="10"/>
</g>
<path d="M137.001 14.6651H59.7397C37.3349 14.6651 19.1722 32.8344 19.1722 55.2473V120.822C19.1722 143.235 37.3349 161.404 59.7397 161.404H137.001C159.406 161.404 177.568 143.235 177.568 120.822V55.2473C177.568 32.8344 159.406 14.6651 137.001 14.6651Z" stroke="#231F20" stroke-miterlimit="10"/>
<path d="M177.568 103.713C177.568 103.713 174.487 103.536 171.493 105.848C168.499 108.161 142.416 150.196 142.416 150.196H177.568V103.713Z" fill="#231F20"/>
<path d="M63.2687 146.141L23.6795 135.533C23.6795 135.533 19.7248 134.474 18.7503 138.111C17.5592 142.556 20.493 157.886 29.9119 160.41L57.4457 167.788C62.5698 169.161 67.9567 165.726 69.4612 160.111L69.8146 158.792C71.3191 153.177 68.3715 147.509 63.2474 146.136L63.2687 146.141Z" fill="#D8DFE9" stroke="#231F20" stroke-miterlimit="10"/>
<path d="M183.335 97.2236C200.038 97.2237 213.529 111.594 213.529 129.256C213.529 129.286 213.527 129.316 213.527 129.347L201.479 139.5H211.951C207.927 152.154 196.652 161.288 183.335 161.288C166.632 161.288 153.142 146.918 153.142 129.256C153.142 111.594 166.632 97.2239 183.335 97.2236Z" fill="#D8DFE9"/>
<path d="M183.335 97.2236L183.335 96.7236H183.335L183.335 97.2236ZM213.529 129.256L214.029 129.256V129.256H213.529ZM213.527 129.347L213.85 129.729L214.027 129.58L214.027 129.348L213.527 129.347ZM201.479 139.5L201.156 139.118L200.109 140H201.479V139.5ZM211.951 139.5L212.428 139.652L212.635 139H211.951V139.5ZM183.335 161.288L183.335 161.788H183.335L183.335 161.288ZM153.142 129.256H152.642V129.256L153.142 129.256ZM183.335 97.2236L183.335 97.7236C199.734 97.7237 213.029 111.841 213.029 129.256H213.529H214.029C214.029 111.346 200.342 96.7237 183.335 96.7236L183.335 97.2236ZM213.529 129.256L213.029 129.256C213.029 129.262 213.029 129.269 213.029 129.285C213.028 129.299 213.027 129.322 213.027 129.345L213.527 129.347L214.027 129.348C214.027 129.341 214.028 129.334 214.028 129.317C214.029 129.303 214.029 129.28 214.029 129.256L213.529 129.256ZM213.527 129.347L213.205 128.964L201.156 139.118L201.479 139.5L201.801 139.882L213.85 129.729L213.527 129.347ZM201.479 139.5V140H211.951V139.5V139H201.479V139.5ZM211.951 139.5L211.475 139.348C207.509 151.817 196.411 160.788 183.335 160.788L183.335 161.288L183.335 161.788C196.892 161.788 208.344 152.491 212.428 139.652L211.951 139.5ZM183.335 161.288L183.335 160.788C166.936 160.788 153.642 146.67 153.642 129.256L153.142 129.256L152.642 129.256C152.642 147.165 166.328 161.788 183.335 161.788L183.335 161.288ZM153.142 129.256H153.642C153.642 111.841 166.936 97.7239 183.335 97.7236L183.335 97.2236L183.335 96.7236C166.328 96.7239 152.642 111.347 152.642 129.256H153.142Z" fill="black"/>
<path d="M196.74 129.255C194.605 129.255 192.888 127.516 192.888 125.402C192.888 123.288 194.627 121.548 196.74 121.548C198.853 121.548 200.592 123.288 200.592 125.402C200.592 127.516 198.853 129.255 196.74 129.255Z" fill="#231F20"/>
<path d="M180.738 139.054H201.297L214 128.5" stroke="#231F20" stroke-miterlimit="10"/>
<path d="M164.347 146.136L124.779 135.534C124.779 135.534 120.824 134.474 119.85 138.111C118.659 142.556 121.593 157.886 131.011 160.41L158.545 167.788C163.669 169.161 169.056 165.726 170.561 160.111L170.914 158.792C172.419 153.177 169.471 147.509 164.347 146.136Z" fill="#D8DFE9" stroke="#231F20" stroke-miterlimit="10"/>
</svg>
