<svg width="230" height="186" viewBox="0 0 230 186" fill="none" xmlns="http://www.w3.org/2000/svg">
<mask id="mask0_186_55" style="mask-type:luminance" maskUnits="userSpaceOnUse" x="19" y="14" width="159" height="148">
<path d="M136.23 14.6651H60.5101C37.6798 14.6651 19.1722 33.1794 19.1722 56.018V120.051C19.1722 142.89 37.6798 161.404 60.5101 161.404H136.23C159.061 161.404 177.568 142.89 177.568 120.051V56.018C177.568 33.1794 159.061 14.6651 136.23 14.6651Z" fill="white"/>
</mask>
<g mask="url(#mask0_186_55)">
<path d="M136.538 14.6651H60.2019C37.5418 14.6651 19.1722 33.0414 19.1722 55.7097V120.359C19.1722 143.028 37.5418 161.404 60.2019 161.404H136.538C159.199 161.404 177.568 143.028 177.568 120.359V55.7097C177.568 33.0414 159.199 14.6651 136.538 14.6651Z" fill="#EEEFA4"/>
<path d="M16.1786 95.8295C16.1786 95.8295 26.4801 98.7361 31.8509 92.2844C37.2218 85.8326 27.1624 74.5145 29.2535 70.617C31.3446 66.7195 52.2777 66.7416 52.2777 66.7416L55.2053 38.9307L24.8292 22.2398C24.8292 22.2398 20.8451 23.3628 17.3012 31.2459C12.8988 40.9566 16.1786 95.8295 16.1786 95.8295Z" fill="#D8DFE9" stroke="#0B0B0B" stroke-miterlimit="10"/>
<path d="M119.149 5.52693L98.3702 35.892L105.282 46.4615C105.282 46.4615 123.265 43.9072 124.982 44.854C126.721 45.8229 127.404 54.7849 130.507 58.6163C133.611 62.4698 148.139 54.7629 148.139 54.7629L171.647 60.7082L168.543 82.3095C168.543 82.3095 153.95 79.7552 151.749 82.3095C149.547 84.8637 149.877 90.699 149.877 90.699L153.333 106.707L180.65 119.897V40.4501C180.65 40.4501 180.21 31.1138 172.263 23.8473C164.317 16.5808 149.459 9.27027 149.459 9.27027L119.127 5.52693H119.149Z" fill="#D8DFE9" stroke="#080908" stroke-miterlimit="10"/>
<path d="M68.4123 67.0058C68.4123 67.0058 68.1261 75.9678 78.8458 75.9678C89.5655 75.9678 94.166 71.4978 94.166 71.4978L78.8458 63.1083L75.8743 54.0803L66.8055 56.1501L68.4123 67.0278V67.0058Z" fill="#D8DFE9" stroke="#0B0B0B" stroke-miterlimit="10"/>
<path d="M16.971 141.652H179.241C179.241 141.652 178.493 147.4 170.701 155.018C162.886 162.637 152.563 162.439 152.563 162.439H50.3187C50.3187 162.439 38.6745 163.518 27.8448 156.846C17.037 150.174 16.949 141.652 16.949 141.652H16.971Z" fill="white"/>
<path d="M24.565 141.058H174.002" stroke="#231F20" stroke-miterlimit="10"/>
</g>
<path d="M137.001 14.6651H59.7397C37.3349 14.6651 19.1722 32.8344 19.1722 55.2473V120.822C19.1722 143.235 37.3349 161.404 59.7397 161.404H137.001C159.406 161.404 177.568 143.235 177.568 120.822V55.2473C177.568 32.8344 159.406 14.6651 137.001 14.6651Z" stroke="#231F20" stroke-miterlimit="10"/>
<path d="M177.568 103.713C177.568 103.713 174.487 103.536 171.493 105.848C168.499 108.161 142.416 150.196 142.416 150.196H177.568V103.713Z" fill="#231F20"/>
<path d="M183.335 160.787C199.735 160.787 213.029 146.67 213.029 129.255C213.029 111.841 199.735 97.7232 183.335 97.7232C166.936 97.7232 153.642 111.841 153.642 129.255C153.642 146.67 166.936 160.787 183.335 160.787Z" fill="#D8DFE9" stroke="#080908" stroke-miterlimit="10"/>
<path d="M196.74 129.255C194.605 129.255 192.888 127.516 192.888 125.402C192.888 123.288 194.627 121.548 196.74 121.548C198.853 121.548 200.592 123.288 200.592 125.402C200.592 127.516 198.853 129.255 196.74 129.255Z" fill="#231F20"/>
<path d="M180.738 139.054H201.297L213 132.5" stroke="#231F20" stroke-miterlimit="10"/>
<path d="M162.05 150.196H121.086C121.086 150.196 116.992 150.196 116.992 153.961C116.992 158.564 123.794 172.612 133.545 172.612H162.05C167.355 172.612 171.669 167.9 171.669 162.087V160.721C171.669 154.908 167.355 150.196 162.05 150.196Z" fill="#D8DFE9" stroke="#231F20" stroke-miterlimit="10"/>
<path d="M60.9723 150.196H19.9866C19.9866 150.196 15.8924 150.196 15.8924 153.961C15.8924 158.564 22.694 172.612 32.4452 172.612H60.9503C66.2551 172.612 70.5694 167.9 70.5694 162.087V160.721C70.5694 154.908 66.2551 150.196 60.9503 150.196H60.9723Z" fill="#D8DFE9" stroke="#231F20" stroke-miterlimit="10"/>
</svg>
