<svg width="45" height="41" viewBox="0 0 45 41" fill="none" xmlns="http://www.w3.org/2000/svg">
<path d="M33 2.00003C28 -0.500001 24 2.66665 21.5 5.49999C20 3.66665 17.9 2.20001 13.5 3C9.1 3.79999 7.99983 8.33333 7.99975 10.5C5.66642 11.1667 1.09975 13.7 1.49975 18.5C1.89975 23.3 5.16635 25 7.99975 25C6.33308 27 6.3 33.8 11.5 37C16.7 40.2 19.8333 37.3333 21.5 36C22.1667 38 26.3 40.2 29.5 39C32.7 37.8 36 35 35 30.5C39.5 30.5 41.75 27 43 23C45 16.6 39.5 11.6667 37 10.5C38 8.66667 36.8699 3.93498 33 2.00003Z" fill="#CFDECB" stroke="#212121" stroke-width="2"/>
</svg>
