<svg width="68" height="71" viewBox="0 0 68 71" fill="none" xmlns="http://www.w3.org/2000/svg">
<mask id="path-1-inside-1_102_1671" fill="white">
<path d="M29.8354 20C45.0697 20 57.4194 33.0935 57.4194 49.2451C57.4194 57.8838 53.8855 65.6464 48.2681 71H11.4028C5.78541 65.6464 2.25148 57.8838 2.25146 49.2451C2.25146 33.0935 14.6012 20.0001 29.8354 20Z"/>
</mask>
<path d="M29.8354 20C45.0697 20 57.4194 33.0935 57.4194 49.2451C57.4194 57.8838 53.8855 65.6464 48.2681 71H11.4028C5.78541 65.6464 2.25148 57.8838 2.25146 49.2451C2.25146 33.0935 14.6012 20.0001 29.8354 20Z" fill="#D8DFE9"/>
<path d="M29.8354 20V18H29.8354L29.8354 20ZM57.4194 49.2451L59.4194 49.2451V49.2451H57.4194ZM48.2681 71V73H49.0685L49.6479 72.4478L48.2681 71ZM11.4028 71L10.023 72.4478L10.6024 73H11.4028V71ZM2.25146 49.2451H0.251465V49.2451L2.25146 49.2451ZM29.8354 20V22C43.8566 22 55.4194 34.0863 55.4194 49.2451H57.4194H59.4194C59.4194 32.1007 46.2829 18 29.8354 18V20ZM57.4194 49.2451L55.4194 49.2451C55.4194 57.3333 52.1121 64.5737 46.8883 69.5522L48.2681 71L49.6479 72.4478C55.659 66.7191 59.4194 58.4343 59.4194 49.2451L57.4194 49.2451ZM48.2681 71V69H11.4028V71V73H48.2681V71ZM11.4028 71L12.7826 69.5522C7.55881 64.5737 4.25148 57.3332 4.25146 49.2451L2.25146 49.2451L0.251465 49.2451C0.251479 58.4343 4.012 66.7191 10.023 72.4478L11.4028 71ZM2.25146 49.2451H4.25146C4.25146 34.0863 15.8144 22.0001 29.8355 22L29.8354 20L29.8354 18C13.3881 18.0001 0.251465 32.1008 0.251465 49.2451H2.25146Z" fill="black" mask="url(#path-1-inside-1_102_1671)"/>
<path d="M0 55.331H19.0982L30.2515 44.5L40.9774 55.331H58.5625" stroke="#231F20" stroke-width="2" stroke-miterlimit="10"/>
<path d="M18.75 46.25V39.75" stroke="#212121" stroke-width="2"/>
<path d="M41.25 46.25V39.75" stroke="#212121" stroke-width="2"/>
<path d="M30.6265 15.6928L24.7295 2C26.7579 2.54352 35.2651 6.49512 37.3321 8.51721C39.0547 10.2023 42.0024 13.8062 43.0644 16.3338C45.6536 14.7845 47.8371 13.1265 51.0134 12.6317C54.3164 12.1172 61.1667 12.0624 65.2984 12.8704L53.7507 21.8889L56.9463 37.5497C53.0764 35.765 45.0205 31.7521 43.7566 29.9779C42.4927 28.2037 41.7217 24.0492 41.4942 22.1938C40.0616 23.7539 36.5611 26.9732 34.0201 27.369C31.479 27.7648 23.6337 27.7263 20.0286 27.6576L30.6265 15.6928Z" fill="#F8CECE" stroke="#212121" stroke-width="2"/>
<path d="M23 60.5C24.5 61 28 62 30 62C32 62 34.8333 60.6667 36 60" stroke="#212121" stroke-width="2"/>
</svg>
