<svg width="61" height="61" viewBox="0 0 61 61" fill="none" xmlns="http://www.w3.org/2000/svg">
<circle cx="30.5" cy="30.5" r="30.5" fill="#212121"/>
<mask id="mask0_199_11" style="mask-type:alpha" maskUnits="userSpaceOnUse" x="12" y="12" width="37" height="37">
<rect x="12.2002" y="12.2" width="36.6" height="36.6" fill="#D9D9D9"/>
</mask>
<g mask="url(#mask0_199_11)">
<path d="M30.4996 44.9875C28.7009 44.9875 27.0156 44.6473 25.4439 43.9669C23.8718 43.2865 22.5012 42.3617 21.3321 41.1925C20.1629 40.0234 19.2381 38.6528 18.5577 37.0808C17.8773 35.509 17.5371 33.8237 17.5371 32.025H19.8246C19.8246 34.9988 20.8603 37.5214 22.9318 39.5928C25.0033 41.6643 27.5259 42.7 30.4996 42.7C33.4734 42.7 35.996 41.6643 38.0674 39.5928C40.1389 37.5214 41.1746 34.9988 41.1746 32.025C41.1746 29.0513 40.1389 26.5287 38.0674 24.4572C35.996 22.3857 33.4734 21.35 30.4996 21.35H30.0947L32.5172 23.7725L30.9102 25.4263L25.6901 20.1918L30.9396 14.9568L32.5465 16.6107L30.0947 19.0625H30.4996C32.2983 19.0625 33.9836 19.4027 35.5554 20.0831C37.1274 20.7635 38.498 21.6883 39.6671 22.8575C40.8363 24.0266 41.7611 25.3972 42.4415 26.9693C43.1219 28.541 43.4621 30.2263 43.4621 32.025C43.4621 33.8237 43.1219 35.509 42.4415 37.0808C41.7611 38.6528 40.8363 40.0234 39.6671 41.1925C38.498 42.3617 37.1274 43.2865 35.5554 43.9669C33.9836 44.6473 32.2983 44.9875 30.4996 44.9875Z" fill="#F6F5FA"/>
</g>
</svg>
